<svg width="39" height="33" viewBox="0 0 39 33" fill="none" xmlns="http://www.w3.org/2000/svg">
<g clip-path="url(#clip0_27_1622)">
<path d="M12.2535 1.06875V13.7415L10.1611 12.5332V1.06875H12.2535Z" fill="white"/>
<path d="M16.4385 1.06875V16.1568L14.3462 14.9485V1.06875H16.4385Z" fill="white"/>
<path d="M2.32519 15.2562L13.3001 21.5926L11.2075 22.8005L1.27905 17.0682L2.32519 15.2562Z" fill="white"/>
<path d="M4.41725 11.6328L17.4838 19.1769L15.3913 20.3847L3.37109 13.4448L4.41725 11.6328Z" fill="white"/>
<path d="M9.64771 30.9488L20.6227 24.6125L20.6223 27.0286L10.6939 32.7608L9.64771 30.9488Z" fill="white"/>
<path d="M7.55566 27.3254L20.6223 19.7813L20.622 22.1974L8.60179 29.1373L7.55566 27.3254Z" fill="white"/>
<path d="M26.9001 32.4524V19.7797L28.9924 20.988V32.4524H26.9001Z" fill="white"/>
<path d="M22.7151 32.4536V17.3656L24.8074 18.5739V32.4536H22.7151Z" fill="white"/>
<path d="M36.8282 18.2645L25.8533 11.9281L27.9458 10.7203L37.8743 16.4525L36.8282 18.2645Z" fill="white"/>
<path d="M34.7353 21.8894L21.6687 14.3454L23.7613 13.1375L35.7815 20.0774L34.7353 21.8894Z" fill="white"/>
<path d="M29.5047 2.57291L18.5298 8.90928L18.53 6.49316L28.4585 0.760941L29.5047 2.57291Z" fill="white"/>
<path d="M31.5971 6.19635L18.5305 13.7404L18.5308 11.3242L30.551 4.38438L31.5971 6.19635Z" fill="white"/>
</g>
<defs>
<clipPath id="clip0_27_1622">
<rect width="37.6" height="32.8" fill="white" transform="translate(0.600098)"/>
</clipPath>
</defs>
</svg>
